<?xml version="1.0" encoding="utf-8"?>
<!-- Generator: Adobe Illustrator 21.1.0, SVG Export Plug-In . SVG Version: 6.00 Build 0)  -->
<svg version="1.1" id="Lager_1" xmlns="http://www.w3.org/2000/svg" xmlns:xlink="http://www.w3.org/1999/xlink" x="0px" y="0px"
	 width="799.008px" height="307.302px" viewBox="0 0 799.008 307.302" style="enable-background:new 0 0 799.008 307.302;"
	 xml:space="preserve">
<g>
	<path d="M720.694,0.035h-82.182v307.267h82.182c52.498,0,78.314-31.701,78.314-88.392V88.464
		C799.008,31.736,773.192,0.035,720.694,0.035z M743.508,219.721c0,22.522-11.073,31.295-23.614,31.295h-28.256V56.763h28.256
		c12.541,0,23.614,8.773,23.614,31.258V219.721z"/>
	<path d="M344.424,0.016h-12.607c-52.502,0-78.32,31.703-78.32,88.435v130.453c0,56.696,25.817,88.399,78.32,88.399h12.607
		c52.502,0,78.32-31.703,78.32-88.399V88.451C422.744,31.719,396.926,0.016,344.424,0.016z M367.239,219.714
		c0,22.523-11.074,31.297-23.616,31.297h-11.006c-12.541,0-23.616-8.774-23.616-31.297V88.009c0-22.486,11.075-31.26,23.616-31.26
		h11.006c12.542,0,23.616,8.774,23.616,31.26V219.714z"/>
	<rect x="501.789" y="0.035" width="55.5" height="307.267"/>
	<g>
		<polygon points="210.787,0 147.524,0 74.423,307.302 137.686,307.302 		"/>
		<polygon points="41.967,176.942 0,0 63.262,0 84.872,0 		"/>
	</g>
</g>
</svg>
